<svg width="25" height="25" viewBox="0 0 25 25" fill="none" xmlns="http://www.w3.org/2000/svg">
<path fill-rule="evenodd" clip-rule="evenodd" d="M5.5 3.70325H19.5C20.605 3.70325 21.5 4.59825 21.5 5.70325V19.7032C21.5 20.8082 20.605 21.7032 19.5 21.7032H5.5C4.395 21.7032 3.5 20.8082 3.5 19.7032V5.70325C3.5 4.59825 4.395 3.70325 5.5 3.70325ZM6.977 17.7032H9.5V10.7032H6.977V17.7032ZM8.194 9.42025C7.423 9.42025 6.908 8.90625 6.908 8.22025C6.908 7.53425 7.422 7.02025 8.279 7.02025C9.05 7.02025 9.565 7.53425 9.565 8.22025C9.565 8.90625 9.051 9.42025 8.194 9.42025ZM16.058 17.7032H18.5V13.8772C18.5 11.6802 17.523 10.7032 16.302 10.7032C15.081 10.7032 14.43 11.1102 14.105 11.6802V10.7032H11.582V17.7032H14.105V13.8772C14.105 12.7382 14.919 12.5752 15.163 12.5752C15.407 12.5752 16.058 12.8192 16.058 13.8772V17.7032Z" fill="black"/>
</svg>
