<svg width="19" height="15" viewBox="0 0 19 15" fill="none" xmlns="http://www.w3.org/2000/svg">
<path d="M18.5 0.703247C17.798 1.10835 16.3895 1.66044 15.5615 1.81968C15.5372 1.8258 15.5174 1.83368 15.494 1.8398C14.7623 1.13809 13.7597 0.703247 12.65 0.703247C10.4135 0.703247 8.6 2.46626 8.6 4.6405C8.6 4.75512 8.5901 4.96598 8.6 5.07797C5.5823 5.07797 3.2855 3.54157 1.6385 1.57819C1.4594 2.01567 1.3811 2.70687 1.3811 3.35608C1.3811 4.58188 2.3666 5.7858 3.9011 6.53213C3.6185 6.603 3.3071 6.65375 2.9831 6.65375C2.4602 6.65375 1.9067 6.51988 1.4 6.11391C1.4 6.12878 1.4 6.14278 1.4 6.15853C1.4 7.87167 3.2702 9.03798 4.9334 9.36258C4.5959 9.55594 3.9155 9.57519 3.5834 9.57519C3.3494 9.57519 2.5214 9.47108 2.3 9.43083C2.7626 10.8351 4.4312 11.6243 6.0215 11.6523C4.7777 12.6008 3.9146 12.9525 1.3676 12.9525H0.5C2.1092 13.9552 4.1585 14.7032 6.2123 14.7032C12.8993 14.7032 16.7 9.74843 16.7 5.07797C16.7 5.00273 16.6982 4.84524 16.6955 4.68687C16.6955 4.67112 16.7 4.65625 16.7 4.6405C16.7 4.61688 16.6928 4.59413 16.6928 4.57051C16.6901 4.45151 16.6874 4.34039 16.6847 4.28265C17.3957 3.78393 18.0122 3.16184 18.5 2.45314C17.8475 2.73487 17.1473 2.92386 16.412 3.0096C17.1626 2.57213 18.2291 1.5292 18.5 0.703247Z" fill="black"/>
</svg>
